<svg width="80" height="80" viewBox="0 0 80 80" fill="none" xmlns="http://www.w3.org/2000/svg">
<path d="M31.1669 56.2667C31.1669 56.5 30.9336 56.6667 30.6003 56.6667C30.2669 56.6667 30.0003 56.6667 30.0003 56.2667C30.0003 55.8667 30.2669 55.8667 30.5669 55.8667C30.8669 55.8667 31.1669 56.0333 31.1669 56.2667ZM27.8336 55.7667C27.8336 56 27.8336 56.2667 28.3003 56.3333C28.4196 56.3907 28.5569 56.3983 28.6818 56.3547C28.8068 56.311 28.9093 56.2193 28.9669 56.1C28.9669 55.8667 28.9669 55.6333 28.5003 55.5333C28.0336 55.4333 27.9003 55.5333 27.8336 55.7667ZM32.5669 55.6C32.2669 55.6 32.0669 55.8667 32.1003 56.1333C32.1336 56.4 32.4003 56.5 32.7336 56.4333C33.0669 56.3667 33.2336 56.1333 33.2003 55.9C33.1669 55.6667 32.9003 55.5667 32.5669 55.6ZM39.6668 13.3334C36.1515 13.3003 32.6656 13.9778 29.4184 15.3251C26.1712 16.6725 23.2297 18.662 20.7704 21.1742C18.3111 23.6865 16.3847 26.6697 15.1067 29.9448C13.8288 33.2199 13.2257 36.7193 13.3336 40.2333C13.2405 45.9897 14.9477 51.6313 18.2166 56.3703C21.4855 61.1093 26.1529 64.709 31.5669 66.6667C32.9336 66.9 33.4335 66.0333 33.4335 65.3333C33.4335 64.6333 33.4335 60.8667 33.4335 58.6667C33.4335 58.6667 25.9003 60.3333 24.3003 55.3333C24.3003 55.3333 23.1003 52 21.3336 51.3C21.3336 51.3 18.8669 49.5667 21.5003 49.6C22.3627 49.7163 23.1859 50.0333 23.9038 50.5253C24.6216 51.0173 25.2141 51.671 25.6336 52.4333C25.9824 53.117 26.4672 53.7223 27.0582 54.2117C27.6493 54.7013 28.3341 55.065 29.0708 55.2803C29.8074 55.4957 30.5803 55.5583 31.342 55.4643C32.1037 55.3703 32.8381 55.1213 33.5002 54.7333C33.6265 53.3417 34.2265 52.0357 35.2002 51.0333C29.2003 50.3333 23.1336 49.4667 23.1336 38.8333C23.0699 37.632 23.2629 36.431 23.6997 35.3103C24.1365 34.1897 24.8071 33.1747 25.6669 32.3334C24.8557 29.8933 24.9504 27.2427 25.9336 24.8667C28.2003 24.1334 33.3668 27.8334 33.3668 27.8334C37.7808 26.5885 42.4532 26.5885 46.8668 27.8334C46.8668 27.8334 52.0335 24.1334 54.3002 24.8667C55.3048 27.2381 55.3995 29.8965 54.5668 32.3334C55.4572 33.1631 56.1632 34.1703 56.6398 35.29C57.1162 36.4097 57.3525 37.6167 57.3335 38.8333C57.3335 49.5 51.0002 50.3333 45.0002 51.0333C45.6032 51.7097 46.0622 52.502 46.3488 53.3617C46.6352 54.2213 46.7435 55.1303 46.6668 56.0333C46.6668 59.7667 46.6668 64.3667 46.6668 65.2667C46.6648 65.4917 46.7168 65.714 46.8188 65.9147C46.9212 66.1153 47.0698 66.2887 47.2532 66.4193C47.4362 66.5503 47.6485 66.635 47.8712 66.6663C48.0942 66.698 48.3215 66.675 48.5335 66.6C53.9378 64.6593 58.5955 61.07 61.8492 56.339C65.1032 51.608 66.7882 45.974 66.6668 40.2333C66.6982 36.6837 66.0205 33.1634 64.6735 29.879C63.3265 26.5947 61.3372 23.6123 58.8225 21.1068C56.3078 18.6014 53.3178 16.6232 50.0285 15.2884C46.7392 13.9535 43.2165 13.2889 39.6668 13.3334ZM23.8003 51.3667C23.8003 51.3667 23.8003 51.7333 23.8003 51.9333C23.8374 51.9707 23.8816 52.0003 23.9302 52.0203C23.9788 52.0407 24.0309 52.051 24.0836 52.051C24.1362 52.051 24.1884 52.0407 24.237 52.0203C24.2856 52.0003 24.3298 51.9707 24.3669 51.9333C24.3669 51.9333 24.3669 51.5667 24.3669 51.3333C24.3669 51.1 23.9336 51.2333 23.8003 51.3667ZM22.6336 50.4667C22.6336 50.4667 22.6336 50.8 22.8669 50.9C22.895 50.935 22.9306 50.963 22.971 50.9823C23.0113 51.0013 23.0555 51.0117 23.1003 51.0117C23.145 51.0117 23.1892 51.0013 23.2295 50.9823C23.2699 50.963 23.3055 50.935 23.3336 50.9C23.3336 50.9 23.3336 50.5667 23.1003 50.4667C22.8669 50.3667 22.7003 50.3667 22.6336 50.4667ZM25.9669 54.4C25.9669 54.4 25.9669 54.8667 25.9669 55.1C25.9669 55.3333 26.5336 55.3667 26.6669 55.1C26.8003 54.8333 26.6669 54.6333 26.6669 54.4C26.6669 54.1667 26.2336 54.2333 26.1003 54.4H25.9669ZM24.7336 52.7667C24.7336 52.7667 24.7336 53.1667 24.7336 53.4333C24.7336 53.7 25.2003 53.8 25.3669 53.7C25.4513 53.603 25.4978 53.4787 25.4978 53.35C25.4978 53.2213 25.4513 53.097 25.3669 53C25.2003 52.7333 24.9336 52.6333 24.7336 52.7667Z" fill="white"/>
</svg>
