<svg width="80" height="80" viewBox="0 0 80 80" fill="none" xmlns="http://www.w3.org/2000/svg">
<path fill-rule="evenodd" clip-rule="evenodd" d="M49.5996 17.6001H30.3996C23.3304 17.6001 17.5996 23.3309 17.5996 30.4001V49.6001C17.5996 56.6692 23.3304 62.4001 30.3996 62.4001H49.5996C56.6687 62.4001 62.3996 56.6692 62.3996 49.6001V30.4001C62.3996 23.3309 56.6687 17.6001 49.5996 17.6001Z" stroke="white" stroke-width="3.6" stroke-linecap="round" stroke-linejoin="round"/>
<path fill-rule="evenodd" clip-rule="evenodd" d="M40.0004 49.5999C34.6983 49.5999 30.4004 45.302 30.4004 39.9999C30.4004 34.6978 34.6983 30.3999 40.0004 30.3999C45.3025 30.3999 49.6004 34.6978 49.6004 39.9999C49.6004 42.5458 48.5889 44.9877 46.7886 46.7881C44.9882 48.5884 42.5463 49.5999 40.0004 49.5999Z" stroke="white" stroke-width="3.6" stroke-linecap="round" stroke-linejoin="round"/>
<path d="M52.7996 23.9999C51.0323 23.9999 49.5996 25.4326 49.5996 27.1999C49.5996 28.9672 51.0323 30.3999 52.7996 30.3999C54.5669 30.3999 55.9996 28.9672 55.9996 27.1999C55.9996 25.4326 54.5669 23.9999 52.7996 23.9999Z" fill="white"/>
<path d="M52.7992 25.6C51.9156 25.6 51.1992 26.3164 51.1992 27.2C51.1992 28.0837 51.9156 28.8 52.7992 28.8C53.6829 28.8 54.3992 28.0837 54.3992 27.2C54.3992 26.3164 53.6829 25.6 52.7992 25.6Z" stroke="white" stroke-width="2.4" stroke-linecap="round"/>
</svg>
