<svg width="80" height="80" viewBox="0 0 80 80" fill="none" xmlns="http://www.w3.org/2000/svg">
<path d="M62.4006 13.3332H17.9007C17.3271 13.3063 16.7538 13.3928 16.2137 13.5878C15.6736 13.7827 15.1773 14.0823 14.7531 14.4693C14.3289 14.8563 13.9852 15.3232 13.7417 15.8432C13.4982 16.3633 13.3597 16.9262 13.334 17.4998V62.0999C13.3676 63.3003 13.8595 64.4426 14.7088 65.2916C15.558 66.1409 16.7001 66.6329 17.9007 66.6666H62.4006C63.5676 66.6146 64.668 66.1073 65.4656 65.2536C66.2633 64.3999 66.6946 63.2679 66.6673 62.0999V17.4998C66.677 16.9415 66.5723 16.3871 66.36 15.8707C66.1477 15.3542 65.832 14.8866 65.4323 14.4964C65.033 14.1063 64.558 13.8019 64.0367 13.6019C63.5153 13.4018 62.9586 13.3104 62.4006 13.3332ZM30.0007 57.7999H22.234V34.0333H30.0007V57.7999ZM26.3007 30.4332C25.7587 30.4521 25.2186 30.3587 24.7145 30.1589C24.2104 29.9591 23.753 29.6572 23.3711 29.2721C22.9892 28.8871 22.691 28.4273 22.4954 27.9215C22.2997 27.4157 22.2107 26.875 22.234 26.3332C22.21 25.7855 22.3008 25.2389 22.5005 24.7284C22.7002 24.2179 23.0044 23.7547 23.3936 23.3687C23.7828 22.9826 24.2483 22.6822 24.7604 22.4867C25.2726 22.2911 25.8199 22.2048 26.3673 22.2332C26.9093 22.2143 27.4493 22.3077 27.9535 22.5075C28.4576 22.7073 28.915 23.0092 29.2969 23.3942C29.6788 23.7792 29.9769 24.2391 30.1726 24.7448C30.3683 25.2506 30.4573 25.7914 30.434 26.3332C30.458 26.8808 30.3672 27.4274 30.1675 27.9379C29.9678 28.4485 29.6636 28.9116 29.2744 29.2976C28.8852 29.6837 28.4197 29.9841 27.9076 30.1797C27.3954 30.3752 26.8481 30.4616 26.3007 30.4332ZM57.8007 57.7999H50.0006V44.7999C50.0006 41.6999 48.9007 39.5666 46.134 39.5666C45.2747 39.5739 44.4383 39.8469 43.7403 40.3483C43.042 40.8496 42.516 41.5546 42.234 42.3666C42.0173 42.9753 41.9267 43.6216 41.9673 44.2666V57.7999H34.3006V34.0333H41.9673V37.3666C42.649 36.1143 43.6633 35.0749 44.8987 34.3629C46.134 33.6513 47.542 33.2949 48.9673 33.3332C54.0006 33.3332 57.8007 36.6666 57.8007 43.7666V57.7999Z" fill="white"/>
</svg>
