<svg width="60" height="60" viewBox="0 0 60 60" fill="none" xmlns="http://www.w3.org/2000/svg">
<path d="M38.2499 56.3163C40.174 56.3163 40.174 59.2424 38.2499 59.2424H2.99589C2.18801 59.2424 1.5332 58.5869 1.5332 57.779V13.7219C1.5332 13.318 1.69691 12.9516 1.96124 12.6873L13.4629 1.18631C13.7485 0.900719 14.1227 0.757568 14.4968 0.757568H47.5838C48.3917 0.757568 49.0472 1.41309 49.0472 2.22097V27.8294C49.0472 29.7541 46.1211 29.7541 46.1211 27.8294V3.68365H15.1028L4.45929 14.3278V56.3163H38.2499ZM13.3609 43.42C11.4361 43.42 11.4361 40.4939 13.3609 40.4939H35.0935C37.0183 40.4939 37.0183 43.42 35.0935 43.42H13.3609ZM13.3609 23.9544C11.4361 23.9544 11.4361 21.0283 13.3609 21.0283H35.0935C37.0183 21.0283 37.0183 23.9544 35.0935 23.9544H13.3609ZM13.3609 30.4429C11.4361 30.4429 11.4361 27.5168 13.3609 27.5168H35.0935C37.0183 27.5168 37.0183 30.4429 35.0935 30.4429H13.3609ZM13.3609 36.9315C11.4361 36.9315 11.4361 34.0054 13.3609 34.0054H35.0935C37.0183 34.0054 37.0183 36.9315 35.0935 36.9315H13.3609ZM13.3609 17.4658C11.4361 17.4658 11.4361 14.5397 13.3609 14.5397H35.0935C37.0183 14.5397 37.0183 17.4658 35.0935 17.4658H13.3609ZM48.5511 34.3498C52.0831 34.3498 54.9461 37.2128 54.9461 40.7448C54.9461 42.0275 54.5684 43.2216 53.9186 44.2222C56.581 45.9889 58.2747 48.9051 58.4633 52.1026C58.5759 54.0203 55.6605 54.1911 55.5485 52.2741C55.399 49.7449 53.9462 47.492 51.7125 46.3043C50.7799 46.8358 49.7013 47.1391 48.5511 47.1391C47.3067 47.1391 46.1452 46.7841 45.163 46.1689C42.7932 47.3113 41.2228 49.6443 41.0676 52.2741C40.9549 54.1911 38.0402 54.0203 38.1529 52.1026C38.3506 48.7591 40.1903 45.7331 43.0483 44.004C42.4821 43.0494 42.1568 41.9354 42.1568 40.7448C42.1568 37.2135 45.0198 34.3498 48.5511 34.3498ZM48.5511 37.2759C46.6356 37.2759 45.0829 38.8293 45.0829 40.7448C45.0829 42.6603 46.6356 44.213 48.5511 44.213C50.4667 44.213 52.0201 42.6603 52.0201 40.7448C52.0201 38.8293 50.4674 37.2759 48.5511 37.2759Z" fill="white"/>
</svg>
